# Blender v2.79 (sub 0) OBJ File: ''
# www.blender.org
o Plane
v -1.000000 -1.000000 0.000000
v 1.000000 -1.000000 0.000000
v -1.000000 1.000000 0.000000
v 1.000000 1.000000 0.000000
v -1.000000 -1.000000 -0.086984
v 1.000000 -1.000000 -0.086984
v -1.000000 1.000000 -0.086984
v 1.000000 1.000000 -0.086984
vn 0.0000 0.0000 -1.0000
vn 1.0000 0.0000 0.0000
vn -1.0000 0.0000 0.0000
vn 0.0000 1.0000 0.0000
vn 0.0000 -1.0000 0.0000
s off
f 6//1 5//1 7//1
f 4//2 2//2 6//2
f 1//3 3//3 7//3
f 3//4 4//4 8//4
f 2//5 1//5 5//5
f 6//1 7//1 8//1
f 4//2 6//2 8//2
f 1//3 7//3 5//3
f 3//4 8//4 7//4
f 2//5 5//5 6//5
